# Blender v2.80 (sub 75) OBJ File: 'DXBoxCube.blend'
# www.blender.org
mtllib DXBoxCube.mtl
o Cube
v -1.000000 -1.000000 1.000000
v 1.000000 -1.000000 1.000000
v -1.000000 -1.000000 -1.000000
v 1.000000 -1.000000 -1.000000
v -1.000000 1.000000 1.000000
v 1.000000 1.000000 1.000000
v -1.000000 1.000000 -1.000000
v 1.000000 1.000000 -1.000000
vt -0.005409 -2.018260
vt 1.001544 -2.018260
vt 1.001544 -1.011308
vt -0.005409 -1.011308
vt -0.005409 -1.011308
vt 1.001544 -1.011308
vt 1.001544 -0.004355
vt -0.005409 -0.004355
vt 1.001544 1.002598
vt -0.005409 1.002598
vt 1.001544 1.002598
vt 1.001544 2.009551
vt -0.005409 2.009551
vt -1.012362 -0.004355
vt -0.005409 -0.004355
vt -0.005409 1.002598
vt -1.012362 1.002598
vt 1.001544 -0.004355
vt 2.008497 -0.004355
vt 2.008497 1.002598
vn -1.0000 0.0000 -0.0000
vn 0.0000 0.0000 -1.0000
vn 0.0000 1.0000 0.0000
vn 1.0000 0.0000 0.0000
vn 0.0000 -1.0000 0.0000
vn -0.0000 0.0000 1.0000
usemtl DxLogo
s off
f 1/1/1 5/2/1 7/3/1 3/4/1
f 4/5/2 3/6/2 7/7/2 8/8/2
f 8/8/3 7/7/3 5/9/3 6/10/3
f 6/10/4 2/11/4 4/12/4 8/13/4
f 2/14/5 1/15/5 3/16/5 4/17/5
f 6/18/6 5/19/6 1/20/6 2/11/6
