# Blender v2.80 (sub 75) OBJ File: 'DXBox.blend'
# www.blender.org
mtllib DXBox.mtl
o Bottom_Plane
v -2.000000 2.000000 0.000000
v -2.000000 -2.000000 0.000000
v 2.000000 2.000000 0.000000
v 2.000000 -2.000000 0.000000
vt 0.000000 0.000000
vt 1.000000 0.000000
vt 1.000000 1.000000
vt 0.000000 1.000000
vn 0.0000 0.0000 1.0000
usemtl DXLogo
s off
f 1/1/1 2/2/1 4/3/1 3/4/1
o Left_Plane.001
v -2.000000 2.000000 0.000000
v 2.000000 2.000000 0.000000
v -2.000000 2.000000 4.000000
v 2.000000 2.000000 4.000000
vt 0.000000 0.000000
vt 1.000000 0.000000
vt 1.000000 1.000000
vt 0.000000 1.000000
vn 0.0000 -1.0000 0.0000
usemtl DXLogo.001
s off
f 5/5/2 6/6/2 8/7/2 7/8/2
o Back_Plane.002
v -2.000000 2.000000 0.000000
v -2.000000 -2.000000 0.000000
v -2.000000 2.000000 4.000000
v -2.000000 -2.000000 4.000000
vt 0.000000 0.000000
vt 1.000000 0.000000
vt 1.000000 1.000000
vt 0.000000 1.000000
vn -1.0000 0.0000 -0.0000
usemtl DXLogo.002
s off
f 9/9/3 10/10/3 12/11/3 11/12/3
o Front_Plane.003
v 2.000000 2.000000 0.000000
v 2.000000 -2.000000 0.000000
v 2.000000 2.000000 4.000000
v 2.000000 -2.000000 4.000000
vt 0.000000 0.000000
vt 1.000000 0.000000
vt 1.000000 1.000000
vt 0.000000 1.000000
vn -1.0000 0.0000 -0.0000
usemtl DXLogo.003
s off
f 13/13/4 14/14/4 16/15/4 15/16/4
o Right_Plane.004
v -2.000000 -2.000000 0.000000
v 2.000000 -2.000000 0.000000
v -2.000000 -2.000000 4.000000
v 2.000000 -2.000000 4.000000
vt 0.000000 0.000000
vt 1.000000 0.000000
vt 1.000000 1.000000
vt 0.000000 1.000000
vn 0.0000 -1.0000 0.0000
usemtl DXLogo.004
s off
f 17/17/5 18/18/5 20/19/5 19/20/5
o Top_Plane.005
v -2.000000 2.000000 4.000000
v -2.000000 -2.000000 4.000000
v 2.000000 2.000000 4.000000
v 2.000000 -2.000000 4.000000
vt 0.000000 0.000000
vt 1.000000 0.000000
vt 1.000000 1.000000
vt 0.000000 1.000000
vn 0.0000 0.0000 1.0000
usemtl DXLogo.005
s off
f 21/21/6 22/22/6 24/23/6 23/24/6
